<?xml version="1.0" encoding="UTF-8" standalone="no"?><svg xmlns="http://www.w3.org/2000/svg" xmlns:xlink="http://www.w3.org/1999/xlink" fill="#000000" height="501.1" preserveAspectRatio="xMidYMid meet" version="1" viewBox="-1.5 -1.1 477.8 501.1" width="477.8" zoomAndPan="magnify"><g id="Illustration"><g id="change1_1"><path d="M356.6645813,357.969635H118.0366745V124.4550781 c0-65.8952026,53.4186172-119.3138275,119.3138351-119.3138275h0.0002289 c65.8952026,0,119.3138428,53.4186211,119.3138428,119.3138275V357.969635z" fill="#000000"/></g><g id="change1_2"><path d="M356.6651306,363.1104126H118.0376587c-2.8387375,0-5.140358-2.3016052-5.140358-5.1403503V124.4553452 C112.8973007,55.8310928,168.7258911,0,237.3501434,0S361.805481,55.8310928,361.805481,124.4553452v233.5147095 C361.805481,360.8088074,359.5038757,363.1104126,356.6651306,363.1104126z M123.1780167,352.8297119h228.3467712V124.4553452 c0-62.95681-51.2178345-114.1746368-114.1746368-114.1746368c-62.9542999,0-114.1721268,51.217823-114.1721268,114.1746368 V352.8297119z" fill="#000000"/></g><g id="change2_1"><path d="M144.4925995,177.1257629h-0.0000458c-11.8637695,0-21.4812622-9.6174927-21.4812622-21.4812775v-12.7522888 c0-11.8637695,9.6174927-21.4812622,21.4812622-21.4812622h0.0000458c11.8637848,0,21.4812775,9.6174927,21.4812775,21.4812622 v12.7522888C165.973877,167.5082703,156.3563843,177.1257629,144.4925995,177.1257629z" fill="#fffbe0"/></g><g id="change1_3"><path d="M144.4924164,182.2667694c-14.6781158,0-26.6204147-11.9422913-26.6204147-26.6229248v-12.7504883 c0-14.6806335,11.9422989-26.6229248,26.6204147-26.6229248c14.6806335,0,26.6229248,11.9422913,26.6229248,26.6229248v12.7504883 C171.1153412,170.3244781,159.1730499,182.2667694,144.4924164,182.2667694z M144.4924164,126.5511398 c-9.0106812,0-16.3397064,7.3315353-16.3397064,16.3422165v12.7504883c0,9.0106812,7.3290253,16.3422241,16.3397064,16.3422241 s16.3422241-7.331543,16.3422241-16.3422241v-12.7504883C160.8346405,133.8826752,153.5030975,126.5511398,144.4924164,126.5511398 z" fill="#000000"/></g><g id="change2_2"><path d="M330.2086487,177.1257629h0.0000305c11.8637695,0,21.4812622-9.6174927,21.4812622-21.4812775v-12.7522888 c0-11.8637695-9.6174927-21.4812622-21.4812622-21.4812622h-0.0000305c-11.8638,0-21.4812622,9.6174927-21.4812622,21.4812622 v12.7522888C308.7273865,167.5082703,318.3448486,177.1257629,330.2086487,177.1257629z" fill="#fffbe0"/></g><g id="change1_4"><path d="M330.2078552,182.2667694c-14.6781311,0-26.6204224-11.9422913-26.6204224-26.6229248v-12.7504883 c0-14.6806335,11.9422913-26.6229248,26.6204224-26.6229248c14.6806335,0,26.6229248,11.9422913,26.6229248,26.6229248v12.7504883 C356.83078,170.3244781,344.8884888,182.2667694,330.2078552,182.2667694z M330.2078552,126.5511398 c-9.0106812,0-16.3397217,7.3315353-16.3397217,16.3422165v12.7504883c0,9.0106812,7.3290405,16.3422241,16.3397217,16.3422241 s16.3422241-7.331543,16.3422241-16.3422241v-12.7504883C346.5500793,133.8826752,339.2185364,126.5511398,330.2078552,126.5511398 z" fill="#000000"/></g><g id="change2_3"><path d="M330.2085266,89.9307251l0.000061,53.0617371c0,51.2840729-41.5739746,92.8580322-92.8580475,92.8580322 s-92.8580322-41.5739594-92.8580322-92.8580322l-0.0000458-53.0617371" fill="#fffbe0"/></g><g id="change1_5"><path d="M237.3501434,240.9918213c-54.0364838,0-97.9980774-43.9640961-97.9980774-98.0005798v-53.060112 c0-2.8387451,2.3016052-5.140358,5.1403503-5.140358s5.1403656,2.3016129,5.1403656,5.140358v53.060112 c0,48.3690491,39.3508301,87.7198792,87.7173615,87.7198792s87.7173615-39.3508301,87.7173615-87.7198792v-53.060112 c0-2.8387451,2.3016052-5.140358,5.1403503-5.140358s5.1403503,2.3016129,5.1403503,5.140358v53.060112 C335.3482056,197.0277252,291.3866272,240.9918213,237.3501434,240.9918213z" fill="#000000"/></g><g id="change3_1"><path d="M237.3503571,259.396637c-115.4901199,0-211.5597992,83.1483765-231.6135406,192.846283 c-4.05091,22.1592712,12.8705158,42.6154785,35.3970184,42.6154785h392.4335327 c22.5265198,0,39.447937-20.4562073,35.3970032-42.615509C448.910553,342.5450134,352.8404541,259.396637,237.3503571,259.396637z" fill="#ffd83f"/></g><g id="change1_6"><path d="M433.5671692,500H41.1331177c-12.2234058,0-23.7239475-5.386322-31.5524483-14.776001 c-7.8686595-9.4373779-11.1140108-21.7963257-8.9002447-33.9042664 c20.872654-114.1871948,120.4068069-197.0628815,236.6697235-197.0628815s215.7970428,82.8756866,236.672226,197.0628815 c2.2137451,12.1079407-1.0315857,24.464386-8.9002686,33.9042664C457.2936096,494.613678,445.7905579,500,433.5671692,500z M237.3501434,264.5375671c-111.2957382,0-206.578064,79.331665-226.554657,188.6294861 c-1.6640902,9.1010132,0.7705507,18.3852844,6.6814575,25.4733582 c5.8707485,7.0403748,14.4923897,11.0788879,23.6561794,11.0788879h392.4340515 c9.1637878,0,17.7879333-4.0385132,23.6586609-11.0788879c5.9109192-7.0905762,8.3455505-16.3748474,6.681488-25.4733582 C443.9281921,343.8692322,348.645874,264.5375671,237.3501434,264.5375671z" fill="#000000"/></g><g id="change4_1"><path d="M150.621109,275.9025879h-0.0003052l29.6135101,41.8619995l57.1161804-58.3673706 C237.3504944,259.3972168,187.1986389,259.3972168,150.621109,275.9025879z" fill="#ffd83f"/></g><g id="change1_7"><path d="M180.233963,322.9062195c-0.1355438,0-0.2710724-0.0050354-0.4091339-0.0150757 c-1.5185089-0.1229858-2.9065094-0.9111023-3.7874908-2.1560364l-29.6122589-41.8632813 c-0.8860168-1.2549744-1.1671295-2.8387451-0.763031-4.3196106c0.4015961-1.4808655,1.4457245-2.703186,2.8462677-3.3356934 c37.1571503-16.7664032,86.7485352-16.959671,88.8418274-16.959671c2.0681763,0,3.9355774,1.2399139,4.7387543,3.1474762 c0.8006744,1.9075623,0.3815155,4.1087646-1.064209,5.5871277l-57.1161804,58.3686218 C182.9371643,322.3540344,181.611908,322.9062195,180.233963,322.9062195z M158.5179596,278.164032l22.3535156,31.6001282 l43.738205-44.696991C208.9501801,266.1012573,181.6144257,269.1558533,158.5179596,278.164032z" fill="#000000"/></g><g id="change4_2"><path d="M324.079895,275.9025879h0.0003052l-29.6135254,41.8619995l-57.1161804-58.3673706 C237.3504944,259.3972168,287.5023499,259.3972168,324.079895,275.9025879z" fill="#ffd83f"/></g><g id="change1_8"><path d="M294.4663086,322.9062195c-1.3779602,0-2.703186-0.5521851-3.67453-1.5461426l-57.1161957-58.3686218 c-1.4457245-1.478363-1.8648834-3.6795654-1.064209-5.5871277c0.8031769-1.9075623,2.670578-3.1474762,4.7387695-3.1474762 c2.093277,0,51.6846771,0.1932678,88.8443146,16.959671c1.4005432,0.6325073,2.4446716,1.8548279,2.846283,3.3356934 c0.4040833,1.4833984,0.1229858,3.0646362-0.763031,4.3196106l-29.6147766,41.8632813 c-0.8809814,1.2449341-2.2689819,2.0330505-3.7900085,2.1560364 C294.7373962,322.9011841,294.6018677,322.9062195,294.4663086,322.9062195z M250.0905914,265.0671692l43.738205,44.696991 l22.3560181-31.6001282C293.0883484,269.1558533,265.7500916,266.1012573,250.0905914,265.0671692z" fill="#000000"/></g><g id="change1_9"><path d="M237.3501434,499.9974976c-2.8387451,0-5.1403656-2.3016357-5.1403656-5.1403503V259.3972168 c0-2.8387451,2.3016205-5.1403656,5.1403656-5.1403656c2.8387299,0,5.1403503,2.3016205,5.1403503,5.1403656v235.4599304 C242.4904938,497.6958618,240.1888733,499.9974976,237.3501434,499.9974976z" fill="#000000"/></g><g id="change1_10"><circle cx="269.196" cy="380.858" fill="#000000" r="12.188"/></g><g id="change1_11"><circle cx="269.196" cy="446.191" fill="#000000" r="12.188"/></g><path d="M303.0145874,108.8334808c-30.900177,0-58.1973267-15.1537628-75.077301-38.3694458 c-17.0045319,19.0278549-41.6577759,31.0743103-69.1842804,31.0743103c-3.3128052,0-6.5804291-0.1882477-9.8038177-0.527092 c-2.8723145,8.9516983-4.4567261,18.4781723-4.4567261,28.3836441c0,51.2843475,41.5740204,92.8577271,92.8580322,92.8577271 s92.8580322-41.5733795,92.8580322-92.8577271c0-8.2451477-1.1790466-16.1953812-3.1957703-23.8067703 C319.3451843,107.6387482,311.328125,108.8334808,303.0145874,108.8334808z" fill="none"/><g id="change1_12"><path d="M237.3508148,5.1416106h-0.0003204c-9.4292145,0-18.589859,1.1275902-27.3881378,3.1951528 c-45.176712,10.6170444-80.4561005,46.8781357-89.5966797,92.6054688 c29.0898895,6.6287537,60.6784058,2.4509583,88.2253113-14.2062531c3.5879517-2.1710968,7.0168457-4.5028305,10.2910614-6.9751205 c23.9056091-18.0577621,39.3426819-43.8147583,44.9370117-71.6361847 C255.3018951,6.1945305,246.4518585,5.1416106,237.3508148,5.1416106z" fill="#000000"/></g><g id="change1_13"><path d="M147.0751495,109.1020432c-9.274231,0-18.6061859-1.041626-27.8502884-3.1474609 c-2.7157516-0.619957-4.4451065-3.2880249-3.897934-6.018837c9.5076447-47.575901,46.1929245-85.4935532,93.4575882-96.6025467 c18.4832001-4.342195,37.6290131-4.422513,56.1724548-0.2208748c2.7207642,0.6149352,4.4526367,3.2905307,3.9029541,6.0263643 c-6.011322,29.8908672-22.6597443,56.4284592-46.880661,74.7234039c-3.4386139,2.5977936-7.0453949,5.0449829-10.7249603,7.2712936 C191.6340942,102.9978714,169.529068,109.1020432,147.0751495,109.1020432z M126.5237656,96.9564438 c27.4210892,4.9998016,55.4445572-0.128006,79.4069443-14.6178818c3.3783875-2.0456009,6.6940155-4.2919998,9.8540344-6.6789474 c20.8500671-15.7498703,35.5834045-38.1686516,41.8733063-63.544136 c-15.4587097-2.7910528-31.2161102-2.3693829-46.5192108,1.2273598 C169.4462433,23.1391315,136.7316895,55.6754761,126.5237656,96.9564438z" fill="#000000"/></g><g id="change1_14"><path d="M263.8190613,8.1246738c-8.5171661-1.9301434-17.3672028-2.9830632-26.4682465-2.9830632h-0.0003204 c-9.4292145,0-18.589859,1.1275902-27.3881378,3.1951528c-4.4447937,24.1970692-1.2650146,49.1910477,8.919693,71.4240952 c8.4911346,18.5346451,21.8201599,35.150444,39.6871643,47.7402954 c29.6408081,20.886467,65.5028381,26.343071,98.0953369,18.0803452v-21.126152 C356.6645508,67.6604385,316.9698486,20.1686172,263.8190613,8.1246738z" fill="#000000"/></g><g id="change1_15"><path d="M327.2160034,154.4014282c-25.410614,0-50.4347229-7.7783051-71.6085663-22.6973877 c-17.953598-12.6525955-32.2702942-29.873291-41.398941-49.8022079 c-10.7350159-23.4302864-13.9502411-49.1897926-9.3018341-74.4924927c0.3689575-2.0079513,1.8899841-3.6092927,3.8778534-4.0761414 c18.4832001-4.342195,37.6290131-4.422513,56.1724548-0.2208748l0,0 c57.0233154,12.9211683,96.8485107,62.82127,96.8485107,121.3430176v21.126152c0,2.3518219-1.5963135,4.404953-3.8778687,4.9822388 C347.7799377,153.1364136,337.4665833,154.4014282,327.2160034,154.4014282z M214.4519653,12.6149549 c-3.4009705,22.1326447-0.2735901,44.5363617,9.1035461,65.004921 c8.3731537,18.2773819,21.5051575,34.0749359,37.9753723,45.6809006 c26.1711426,18.4405289,58.7601929,24.9839401,89.9938965,18.2096024v-17.0550308 c0-53.6876068-36.5321655-99.4638824-88.8418274-111.3183212l0,0 C246.7724457,9.5377693,230.4026184,9.3570538,214.4519653,12.6149549z" fill="#000000"/></g></g></svg>