<svg xmlns="http://www.w3.org/2000/svg" xmlns:xlink="http://www.w3.org/1999/xlink" width="500" zoomAndPan="magnify" viewBox="0 0 375 374.999991" height="500" preserveAspectRatio="xMidYMid meet" version="1.0"><defs><clipPath id="c71601e06c"><path d="M 19 23 L 356 23 L 356 366.746094 L 19 366.746094 Z M 19 23 " clip-rule="nonzero"/></clipPath><clipPath id="a5ecff9bbf"><path d="M 9.875 98 L 365.375 98 L 365.375 106 L 9.875 106 Z M 9.875 98 " clip-rule="nonzero"/></clipPath><clipPath id="9b18e095f9"><path d="M 236 8.246094 L 244 8.246094 L 244 46 L 236 46 Z M 236 8.246094 " clip-rule="nonzero"/></clipPath><clipPath id="696cab825e"><path d="M 184 8.246094 L 191 8.246094 L 191 46 L 184 46 Z M 184 8.246094 " clip-rule="nonzero"/></clipPath><clipPath id="ac423a929e"><path d="M 289 8.246094 L 297 8.246094 L 297 46 L 289 46 Z M 289 8.246094 " clip-rule="nonzero"/></clipPath><clipPath id="d498bdc20c"><path d="M 131 8.246094 L 139 8.246094 L 139 46 L 131 46 Z M 131 8.246094 " clip-rule="nonzero"/></clipPath><clipPath id="65d270d1f6"><path d="M 78 8.246094 L 86 8.246094 L 86 46 L 78 46 Z M 78 8.246094 " clip-rule="nonzero"/></clipPath></defs><path fill="#fffbe0" d="M 22.824219 335.867188 L 22.824219 54.417969 C 22.824219 39.257812 35.113281 26.972656 50.273438 26.972656 L 324.746094 26.972656 C 339.902344 26.972656 352.191406 39.257812 352.191406 54.417969 L 352.191406 335.867188 C 352.191406 351.023438 339.902344 363.3125 324.746094 363.3125 L 50.273438 363.3125 C 35.113281 363.3125 22.824219 351.023438 22.824219 335.867188 Z M 22.824219 335.867188 " fill-opacity="1" fill-rule="nonzero"/><g clip-path="url(#c71601e06c)"><path fill="#000000" d="M 324.746094 366.746094 L 50.273438 366.746094 C 33.246094 366.746094 19.394531 352.894531 19.394531 335.867188 L 19.394531 54.417969 C 19.394531 37.394531 33.246094 23.539062 50.273438 23.539062 L 324.746094 23.539062 C 341.769531 23.539062 355.621094 37.394531 355.621094 54.417969 L 355.621094 335.867188 C 355.621094 352.894531 341.769531 366.746094 324.746094 366.746094 Z M 50.273438 30.402344 C 37.027344 30.402344 26.253906 41.175781 26.253906 54.417969 L 26.253906 335.867188 C 26.253906 349.109375 37.027344 359.882812 50.273438 359.882812 L 324.746094 359.882812 C 337.988281 359.882812 348.761719 349.109375 348.761719 335.867188 L 348.761719 54.417969 C 348.761719 41.175781 337.988281 30.402344 324.746094 30.402344 Z M 50.273438 30.402344 " fill-opacity="1" fill-rule="nonzero"/></g><path fill="#ffd83f" d="M 352.191406 54.417969 C 352.191406 39.257812 339.902344 26.96875 324.746094 26.96875 L 50.273438 26.96875 C 35.113281 26.96875 22.824219 39.257812 22.824219 54.417969 L 22.824219 101.800781 L 352.191406 101.800781 Z M 352.191406 54.417969 " fill-opacity="1" fill-rule="nonzero"/><path fill="#000000" d="M 352.191406 105.234375 L 22.824219 105.234375 C 20.929688 105.234375 19.394531 103.699219 19.394531 101.804688 L 19.394531 54.417969 C 19.394531 37.394531 33.246094 23.539062 50.273438 23.539062 L 324.746094 23.539062 C 341.769531 23.539062 355.621094 37.394531 355.621094 54.417969 L 355.621094 101.804688 C 355.621094 103.699219 354.085938 105.234375 352.191406 105.234375 Z M 26.253906 98.371094 L 348.761719 98.371094 L 348.761719 54.417969 C 348.761719 41.175781 337.988281 30.402344 324.746094 30.402344 L 50.273438 30.402344 C 37.027344 30.402344 26.253906 41.175781 26.253906 54.417969 Z M 26.253906 98.371094 " fill-opacity="1" fill-rule="nonzero"/><g clip-path="url(#a5ecff9bbf)"><path fill="#000000" d="M 361.617188 105.234375 L 13.398438 105.234375 C 11.503906 105.234375 9.96875 103.699219 9.96875 101.804688 C 9.96875 99.910156 11.503906 98.371094 13.398438 98.371094 L 361.617188 98.371094 C 363.511719 98.371094 365.050781 99.910156 365.050781 101.804688 C 365.050781 103.699219 363.511719 105.234375 361.617188 105.234375 Z M 361.617188 105.234375 " fill-opacity="1" fill-rule="nonzero"/></g><path fill="#000000" d="M 284.511719 170.65625 L 90.503906 170.65625 C 88.609375 170.65625 87.070312 169.121094 87.070312 167.226562 C 87.070312 165.332031 88.609375 163.792969 90.503906 163.792969 L 284.511719 163.792969 C 286.410156 163.792969 287.945312 165.332031 287.945312 167.226562 C 287.945312 169.121094 286.410156 170.65625 284.511719 170.65625 Z M 284.511719 170.65625 " fill-opacity="1" fill-rule="nonzero"/><path fill="#000000" d="M 284.511719 236.078125 L 90.503906 236.078125 C 88.609375 236.078125 87.070312 234.542969 87.070312 232.648438 C 87.070312 230.753906 88.609375 229.214844 90.503906 229.214844 L 284.511719 229.214844 C 286.410156 229.214844 287.945312 230.753906 287.945312 232.648438 C 287.945312 234.542969 286.410156 236.078125 284.511719 236.078125 Z M 284.511719 236.078125 " fill-opacity="1" fill-rule="nonzero"/><path fill="#000000" d="M 212.984375 301.5 L 90.503906 301.5 C 88.609375 301.5 87.070312 299.964844 87.070312 298.070312 C 87.070312 296.175781 88.609375 294.640625 90.503906 294.640625 L 212.984375 294.640625 C 214.878906 294.640625 216.414062 296.175781 216.414062 298.070312 C 216.414062 299.964844 214.878906 301.5 212.984375 301.5 Z M 212.984375 301.5 " fill-opacity="1" fill-rule="nonzero"/><g clip-path="url(#9b18e095f9)"><path fill="#000000" d="M 240.109375 45.699219 C 238.214844 45.699219 236.679688 44.160156 236.679688 42.265625 L 236.679688 11.675781 C 236.679688 9.78125 238.214844 8.246094 240.109375 8.246094 C 242.003906 8.246094 243.539062 9.78125 243.539062 11.675781 L 243.539062 42.265625 C 243.539062 44.160156 242.003906 45.699219 240.109375 45.699219 Z M 240.109375 45.699219 " fill-opacity="1" fill-rule="nonzero"/></g><g clip-path="url(#696cab825e)"><path fill="#000000" d="M 187.511719 45.699219 C 185.613281 45.699219 184.078125 44.160156 184.078125 42.265625 L 184.078125 11.675781 C 184.078125 9.78125 185.613281 8.246094 187.511719 8.246094 C 189.40625 8.246094 190.941406 9.78125 190.941406 11.675781 L 190.941406 42.265625 C 190.941406 44.160156 189.40625 45.699219 187.511719 45.699219 Z M 187.511719 45.699219 " fill-opacity="1" fill-rule="nonzero"/></g><g clip-path="url(#ac423a929e)"><path fill="#000000" d="M 292.710938 45.699219 C 290.816406 45.699219 289.28125 44.160156 289.28125 42.265625 L 289.28125 11.675781 C 289.28125 9.78125 290.816406 8.246094 292.710938 8.246094 C 294.605469 8.246094 296.140625 9.78125 296.140625 11.675781 L 296.140625 42.265625 C 296.140625 44.160156 294.605469 45.699219 292.710938 45.699219 Z M 292.710938 45.699219 " fill-opacity="1" fill-rule="nonzero"/></g><g clip-path="url(#d498bdc20c)"><path fill="#000000" d="M 134.910156 45.699219 C 133.015625 45.699219 131.476562 44.160156 131.476562 42.265625 L 131.476562 11.675781 C 131.476562 9.78125 133.015625 8.246094 134.910156 8.246094 C 136.804688 8.246094 138.339844 9.78125 138.339844 11.675781 L 138.339844 42.265625 C 138.339844 44.160156 136.804688 45.699219 134.910156 45.699219 Z M 134.910156 45.699219 " fill-opacity="1" fill-rule="nonzero"/></g><g clip-path="url(#65d270d1f6)"><path fill="#000000" d="M 82.308594 45.699219 C 80.414062 45.699219 78.875 44.160156 78.875 42.265625 L 78.875 11.675781 C 78.875 9.78125 80.414062 8.246094 82.308594 8.246094 C 84.203125 8.246094 85.738281 9.78125 85.738281 11.675781 L 85.738281 42.265625 C 85.738281 44.160156 84.203125 45.699219 82.308594 45.699219 Z M 82.308594 45.699219 " fill-opacity="1" fill-rule="nonzero"/></g></svg>